<?xml version="1.0" encoding="UTF-8"?>
<!DOCTYPE svg PUBLIC "-//W3C//DTD SVG 1.1//EN" "http://www.w3.org/Graphics/SVG/1.1/DTD/svg11.dtd">
<!-- Creator: CorelDRAW 2021 (64-Bit) -->
<svg xmlns="http://www.w3.org/2000/svg" xml:space="preserve" width="420mm" height="594mm" version="1.1" style="shape-rendering:geometricPrecision; text-rendering:geometricPrecision; image-rendering:optimizeQuality; fill-rule:evenodd; clip-rule:evenodd"
viewBox="0 0 42000 59400"
 xmlns:xlink="http://www.w3.org/1999/xlink"
 xmlns:xodm="http://www.corel.com/coreldraw/odm/2003">
 <defs>
  <style type="text/css">
   <![CDATA[
    .str0 {stroke:blue;stroke-width:7.62;stroke-miterlimit:22.9256}
    .fil0 {fill:#FEFEFE}
   ]]>
  </style>
 </defs>
 <g id="Layer_x0020_1">
  <metadata id="CorelCorpID_0Corel-Layer"/>
  <g id="_2230192700112">
   <path class="fil0" d="M5248.77 3652.42c-170.87,-77.72 -195.3,-175.47 -196.96,-215.3 -1.19,-28.35 -0.92,-50 -0.25,-52.42 0,-1.85 0.51,-4.37 0.87,-7.46 4.94,-41.34 67.37,-186.54 198.85,-211.8 -225.32,48.44 -432.63,125.51 -466.36,229.42 -5.25,16.16 -6.72,30.35 0.1,44.03 31.85,63.85 154.78,160.52 463.75,213.53z"/>
   <path class="fil0" d="M6956.51 2961.74c-143.4,25.69 -214.3,31.08 -436.55,-9.46 -222.26,-40.53 -601.43,-198.48 -973.36,59.69 -11.51,3.93 301.26,-59.83 552.03,2.4 307.33,76.26 685.11,43.72 857.88,-52.63z"/>
   <path class="fil0" d="M5775.06 3487.9c0,25.05 -7.82,46.86 -23.5,65.78 -15.87,18.79 -37.04,34.45 -63.92,47.11 -27.1,12.52 -58.44,22.05 -94.43,28.44 -35.99,6.39 -74.51,9.52 -115.59,9.52 -27.72,0 -53.34,-1.38 -77.26,-4.14 -23.71,-2.75 -44.66,-6.01 -62.87,-9.89 -18.22,-3.76 -33.46,-7.77 -45.72,-12.03 -12.29,-4.26 -20.97,-8.02 -26.46,-11.15 -5.31,-3.26 -9.11,-7.9 -11.44,-13.91 -2.33,-6.01 -3.4,-14.53 -3.4,-25.81 0,-7.64 0.44,-13.91 1.29,-19.05 0.84,-5.13 2.11,-9.27 4.02,-12.52 1.89,-3.14 4.44,-5.39 7.4,-6.77 3.18,-1.38 6.78,-2.01 11.02,-2.01 5.71,0 13.97,2.01 24.55,6.14 10.59,4.01 24.12,8.52 40.65,13.41 16.51,4.89 36.41,9.4 59.49,13.41 22.86,4.13 49.52,6.14 79.8,6.14 19.9,0 37.68,-1.38 53.34,-4.14 15.88,-2.88 29.23,-6.76 40.23,-11.9 11.01,-5.14 19.26,-11.4 25.19,-18.92 5.71,-7.52 8.68,-15.91 8.68,-25.18 0,-10.78 -4.86,-20.05 -14.81,-27.69 -9.95,-7.77 -22.86,-14.54 -38.97,-20.55 -15.86,-6.02 -34.07,-11.65 -54.4,-16.92 -20.11,-5.26 -41.06,-10.77 -62.65,-16.66 -21.59,-5.89 -42.56,-12.53 -62.67,-20.05 -20.32,-7.39 -38.52,-16.29 -54.4,-26.69 -16.09,-10.39 -29.01,-22.67 -38.97,-36.96 -9.93,-14.16 -14.81,-31.2 -14.81,-50.99 0,-22.68 7.19,-42.73 21.39,-60.02 14.17,-17.16 33.43,-31.45 57.58,-42.85 24.35,-11.4 52.71,-19.92 85.53,-25.56 32.81,-5.64 67.73,-8.39 104.57,-8.39 18.83,0 37.89,0.88 56.95,2.63 19.04,1.63 36.84,4.01 53.34,6.89 16.51,3.01 31.13,6.27 44.03,9.9 12.71,3.76 21.17,6.76 25.42,9.27 4.02,2.38 6.77,4.51 8.24,6.14 1.49,1.75 2.75,4.01 3.82,6.89 1.05,2.76 1.69,6.27 2.11,10.65 0.42,4.26 0.64,9.52 0.64,15.91 0,7.02 -0.22,13.03 -0.84,17.92 -0.64,4.89 -1.71,8.9 -3.18,12.15 -1.49,3.14 -3.6,5.52 -6.15,6.89 -2.75,1.51 -6.35,2.26 -11,2.26 -4.44,0 -11.64,-1.75 -21.59,-5.14 -9.95,-3.38 -22.24,-7.14 -36.63,-11.27 -14.6,-4.01 -31.33,-7.65 -50.39,-10.9 -19.04,-3.39 -39.79,-5.02 -62.66,-5.02 -17.78,0 -33.24,1.26 -46.57,3.89 -13.13,2.5 -24.13,6.14 -33.03,10.65 -8.89,4.51 -15.66,9.9 -19.89,16.29 -4.44,6.39 -6.57,13.15 -6.57,20.17 0,10.52 4.87,19.67 14.62,27.31 9.73,7.77 22.86,14.66 39.16,20.68 16.29,5.88 34.93,11.52 55.67,16.79 20.53,5.26 41.7,10.9 63.3,16.66 21.59,5.89 42.76,12.53 63.29,20.05 20.75,7.51 39.16,16.41 55.47,26.81 16.08,10.4 29.21,22.55 39.16,36.71 9.95,14.03 14.82,30.57 14.82,49.62z"/>
   <polygon class="fil0 str0" points="5453.51,3703.85 6860.4,3703.85 6860.4,3740.85 5453.51,3740.85 "/>
   <path class="fil0 str0" d="M5448.58 3703.87c11.62,0 21.05,8.3 21.05,18.53 0,10.24 -9.43,18.54 -21.05,18.54 -11.63,0 -21.06,-8.3 -21.06,-18.54 0,-10.23 9.43,-18.53 21.06,-18.53z"/>
   <path class="fil0 str0" d="M6864.39 3703.85c11.15,0 20.19,8.3 20.19,18.54 0,10.24 -9.04,18.54 -20.19,18.54 -11.15,0 -20.19,-8.3 -20.19,-18.54 0,-10.24 9.04,-18.54 20.19,-18.54z"/>
   <path class="fil0" d="M6881.3 2640.29c-511.93,-73.09 -1414.45,-52.86 -1550.32,461.49 171.61,-270.34 473.37,-388.56 770.04,-395.95 296.66,-7.39 368.09,23.33 736.45,68.58 368.35,45.25 652.14,-63.08 664.58,-113.31 -33.21,3.08 -108.82,52.29 -620.75,-20.81z"/>
   <path class="fil0" d="M6676.36 2384.73c-221.19,-82.52 -737.43,43.15 -796.14,623.81 74.15,-305.19 365.27,-519.5 493.45,-527.85 128.18,-8.34 128.43,5.76 287.58,56.85 159.15,51.09 277.94,-72.61 283.32,-129.33 -14.35,3.48 -47.02,59.04 -268.21,-23.48z"/>
   <path class="fil0" d="M7263.01 2801.03c-123.24,39.13 -299.78,37.84 -657.15,-10.51 -357.36,-48.34 -847.35,-142.85 -1181.44,258.65 -15.44,18.99 298.78,-319.35 820.06,-202.81 521.27,116.53 633.98,153.8 1018.53,-45.33z"/>
   <path class="fil0" d="M5215.56 2452.81c0.03,-0.01 29.7,1.36 29.96,3.32 9.86,72.74 15.78,356.74 14.53,437.54 -3.11,201.25 -6.07,217.1 -78.43,245.09 -26.76,10.36 -54.74,17.62 -95.16,34.08 28.13,6.37 82.7,-605.76 124.99,-720.79 0.02,-0.04 0.03,-0.12 0.04,-0.11 0.34,0.15 3.97,0.87 4.07,0.87z"/>
   <path class="fil0" d="M7019.39 3487.9c0,25.05 -7.82,46.86 -23.5,65.78 -15.87,18.79 -37.04,34.45 -63.92,47.11 -27.1,12.52 -58.44,22.05 -94.43,28.44 -35.99,6.39 -74.51,9.52 -115.59,9.52 -27.72,0 -53.34,-1.38 -77.26,-4.14 -23.71,-2.75 -44.66,-6.01 -62.87,-9.89 -18.21,-3.76 -33.45,-7.77 -45.72,-12.03 -12.28,-4.26 -20.97,-8.02 -26.46,-11.15 -5.3,-3.26 -9.11,-7.9 -11.44,-13.91 -2.33,-6.01 -3.39,-14.53 -3.39,-25.81 0,-7.64 0.44,-13.91 1.28,-19.05 0.84,-5.13 2.11,-9.27 4.02,-12.52 1.89,-3.14 4.44,-5.39 7.4,-6.77 3.18,-1.38 6.78,-2.01 11.02,-2.01 5.71,0 13.97,2.01 24.55,6.14 10.59,4.01 24.13,8.52 40.65,13.41 16.51,4.89 36.41,9.4 59.49,13.41 22.86,4.13 49.52,6.14 79.8,6.14 19.9,0 37.68,-1.38 53.34,-4.14 15.88,-2.88 29.23,-6.76 40.23,-11.9 11.01,-5.14 19.26,-11.4 25.19,-18.92 5.71,-7.52 8.69,-15.91 8.69,-25.18 0,-10.78 -4.87,-20.05 -14.82,-27.69 -9.95,-7.77 -22.86,-14.54 -38.96,-20.55 -15.87,-6.02 -34.08,-11.65 -54.41,-16.92 -20.11,-5.26 -41.06,-10.77 -62.65,-16.66 -21.59,-5.89 -42.56,-12.53 -62.67,-20.05 -20.32,-7.39 -38.52,-16.29 -54.4,-26.69 -16.09,-10.39 -29.01,-22.67 -38.96,-36.96 -9.94,-14.16 -14.82,-31.2 -14.82,-50.99 0,-22.68 7.2,-42.73 21.39,-60.02 14.17,-17.16 33.44,-31.45 57.58,-42.85 24.35,-11.4 52.72,-19.92 85.53,-25.56 32.81,-5.64 67.73,-8.39 104.57,-8.39 18.84,0 37.89,0.88 56.95,2.63 19.04,1.63 36.84,4.01 53.34,6.89 16.51,3.01 31.13,6.27 44.03,9.9 12.71,3.76 21.17,6.76 25.42,9.27 4.02,2.38 6.77,4.51 8.24,6.14 1.49,1.75 2.75,4.01 3.82,6.89 1.05,2.76 1.69,6.27 2.11,10.65 0.42,4.26 0.64,9.52 0.64,15.91 0,7.02 -0.22,13.03 -0.84,17.92 -0.64,4.89 -1.71,8.9 -3.18,12.15 -1.49,3.14 -3.6,5.52 -6.15,6.89 -2.75,1.51 -6.35,2.26 -11,2.26 -4.44,0 -11.64,-1.75 -21.59,-5.14 -9.95,-3.38 -22.24,-7.14 -36.63,-11.27 -14.6,-4.01 -31.33,-7.65 -50.38,-10.9 -19.05,-3.39 -39.79,-5.02 -62.67,-5.02 -17.78,0 -33.24,1.26 -46.57,3.89 -13.12,2.5 -24.12,6.14 -33.03,10.65 -8.89,4.51 -15.66,9.9 -19.88,16.29 -4.45,6.39 -6.58,13.15 -6.58,20.17 0,10.52 4.87,19.67 14.62,27.31 9.73,7.77 22.86,14.66 39.16,20.68 16.29,5.88 34.93,11.52 55.67,16.79 20.53,5.26 41.7,10.9 63.3,16.66 21.59,5.89 42.76,12.53 63.29,20.05 20.75,7.51 39.16,16.41 55.47,26.81 16.08,10.4 29.21,22.55 39.16,36.71 9.95,14.03 14.82,30.57 14.82,49.62z"/>
   <path class="fil0" d="M6394.86 3610.19c0,2.75 -0.92,5.13 -2.95,7.14 -2.02,2.13 -5.71,3.76 -11.42,5.14 -5.53,1.37 -13.09,2.38 -22.85,3.13 -9.77,0.75 -21.93,1.13 -36.68,1.13 -23.4,0 -40.17,-0.63 -50.5,-1.88 -10.31,-1.13 -17.68,-3.01 -22.1,-5.52 -4.43,-2.38 -7.93,-5.38 -10.5,-8.77l-211.2 -225.53 0 225.53c0,2.63 -1.1,5.01 -3.32,7.02 -2.01,1.88 -5.9,3.63 -11.24,4.89 -5.34,1.37 -12.53,2.38 -21.56,3.13 -8.84,0.75 -20.46,1.13 -34.27,1.13 -13.65,0 -25.06,-0.38 -34.28,-1.13 -9.21,-0.75 -16.4,-1.76 -21.74,-3.13 -5.35,-1.38 -9.22,-3.01 -11.62,-4.89 -2.4,-2.01 -3.5,-4.39 -3.5,-7.02l0 -447.68c0,-2.75 1.1,-5.01 3.5,-7.01 2.4,-1.88 6.27,-3.51 11.62,-4.76 5.34,-1.26 12.53,-2.13 21.74,-2.89 9.22,-0.75 20.63,-1.12 34.28,-1.12 13.81,0 25.43,0.37 34.27,1.12 9.03,0.76 16.22,1.63 21.56,2.89 5.34,1.25 9.23,2.88 11.24,4.76 2.22,2 3.32,4.26 3.32,7.01l0 202.35 204.56 -201.97c2.58,-3.13 5.52,-5.76 9.21,-7.89 3.5,-2.13 8.3,-3.76 14,-5.02 5.72,-1.12 13.09,-2 22.12,-2.5 9.03,-0.5 20.46,-0.75 34.46,-0.75 14.37,0 26.17,0.37 35.57,1.12 9.4,0.76 16.76,1.76 22.49,3.14 5.53,1.25 9.39,3 11.42,4.88 2.21,2.01 3.31,4.14 3.31,6.64 0,4.14 -1.66,8.4 -4.79,12.91 -3.31,4.38 -9.4,11.28 -18.43,20.92l-191.28 170.78 208.8 214.76c7.91,10.02 12.7,16.79 14.37,20.04 1.66,3.26 2.39,5.89 2.39,7.9z"/>
  </g>
 </g>
</svg>
