<?xml version="1.0" encoding="UTF-8"?>
<!DOCTYPE svg PUBLIC "-//W3C//DTD SVG 1.1//EN" "http://www.w3.org/Graphics/SVG/1.1/DTD/svg11.dtd">
<!-- Creator: CorelDRAW 2021 (64-Bit) -->
<svg xmlns="http://www.w3.org/2000/svg" xml:space="preserve" width="27.2163mm" height="13.8291mm" version="1.1" style="shape-rendering:geometricPrecision; text-rendering:geometricPrecision; image-rendering:optimizeQuality; fill-rule:evenodd; clip-rule:evenodd"
viewBox="0 0 228.34 116.03"
 xmlns:xlink="http://www.w3.org/1999/xlink"
 xmlns:xodm="http://www.corel.com/coreldraw/odm/2003">
 <defs>
  <style type="text/css">
   <![CDATA[
    .str0 {stroke:blue;stroke-width:0.64;stroke-miterlimit:22.9256}
    .fil0 {fill:blue}
    .fil1 {fill:blue;fill-rule:nonzero}
   ]]>
  </style>
 </defs>
 <g id="Layer_x0020_1">
  <metadata id="CorelCorpID_0Corel-Layer"/>
  <g id="_3045961737392">
   <path class="fil0" d="M39.29 108.28c-14.34,-6.52 -16.39,-14.72 -16.52,-18.06 -0.1,-2.38 -0.08,-4.19 -0.02,-4.4 0,-0.16 0.04,-0.37 0.07,-0.63 0.41,-3.47 5.65,-15.65 16.68,-17.77 -18.9,4.06 -36.3,10.53 -39.13,19.25 -0.44,1.36 -0.56,2.55 0.01,3.69 2.67,5.36 12.99,13.47 38.91,17.92z"/>
   <path class="fil1" d="M182.57 50.33c-12.03,2.16 -17.98,2.61 -36.63,-0.79 -18.65,-3.4 -50.46,-16.65 -81.66,5.01 -0.97,0.33 25.28,-5.02 46.32,0.2 25.78,6.4 57.48,3.67 71.98,-4.42z"/>
   <path class="fil1" d="M83.45 94.48c0,2.1 -0.66,3.93 -1.97,5.52 -1.33,1.58 -3.11,2.89 -5.36,3.95 -2.27,1.05 -4.9,1.85 -7.92,2.39 -3.02,0.54 -6.25,0.8 -9.7,0.8 -2.33,0 -4.48,-0.12 -6.48,-0.35 -1.99,-0.23 -3.75,-0.5 -5.27,-0.83 -1.53,-0.32 -2.81,-0.65 -3.84,-1.01 -1.03,-0.36 -1.76,-0.67 -2.22,-0.94 -0.45,-0.27 -0.76,-0.66 -0.96,-1.17 -0.2,-0.5 -0.29,-1.22 -0.29,-2.17 0,-0.64 0.04,-1.17 0.11,-1.6 0.07,-0.43 0.18,-0.78 0.34,-1.05 0.16,-0.26 0.37,-0.45 0.62,-0.57 0.27,-0.12 0.57,-0.17 0.92,-0.17 0.48,0 1.17,0.17 2.06,0.52 0.89,0.34 2.02,0.71 3.41,1.13 1.39,0.41 3.05,0.79 4.99,1.13 1.92,0.35 4.15,0.52 6.7,0.52 1.67,0 3.16,-0.12 4.48,-0.35 1.33,-0.24 2.45,-0.57 3.38,-1 0.92,-0.43 1.62,-0.96 2.11,-1.59 0.48,-0.63 0.73,-1.33 0.73,-2.11 0,-0.9 -0.41,-1.68 -1.24,-2.32 -0.83,-0.65 -1.92,-1.22 -3.27,-1.72 -1.33,-0.51 -2.86,-0.98 -4.56,-1.42 -1.69,-0.44 -3.44,-0.9 -5.26,-1.4 -1.81,-0.49 -3.57,-1.05 -5.26,-1.68 -1.7,-0.62 -3.23,-1.37 -4.56,-2.24 -1.35,-0.87 -2.43,-1.9 -3.27,-3.1 -0.83,-1.19 -1.24,-2.62 -1.24,-4.28 0,-1.9 0.6,-3.59 1.79,-5.04 1.19,-1.44 2.8,-2.64 4.83,-3.6 2.04,-0.96 4.42,-1.67 7.18,-2.14 2.75,-0.47 5.68,-0.7 8.77,-0.7 1.58,0 3.18,0.07 4.78,0.22 1.6,0.14 3.09,0.34 4.48,0.58 1.39,0.25 2.61,0.53 3.69,0.83 1.07,0.32 1.78,0.57 2.13,0.78 0.34,0.2 0.57,0.38 0.69,0.52 0.13,0.15 0.23,0.34 0.32,0.58 0.09,0.23 0.14,0.53 0.18,0.89 0.04,0.36 0.05,0.8 0.05,1.33 0,0.59 -0.02,1.09 -0.07,1.5 -0.05,0.41 -0.14,0.75 -0.27,1.02 -0.13,0.26 -0.3,0.46 -0.52,0.58 -0.23,0.13 -0.53,0.19 -0.92,0.19 -0.37,0 -0.98,-0.15 -1.81,-0.43 -0.83,-0.28 -1.87,-0.6 -3.07,-0.95 -1.22,-0.34 -2.63,-0.64 -4.23,-0.91 -1.6,-0.28 -3.34,-0.42 -5.26,-0.42 -1.49,0 -2.79,0.11 -3.91,0.33 -1.1,0.21 -2.02,0.52 -2.77,0.89 -0.75,0.38 -1.31,0.83 -1.67,1.37 -0.37,0.54 -0.55,1.1 -0.55,1.69 0,0.88 0.41,1.65 1.23,2.29 0.82,0.65 1.92,1.23 3.29,1.74 1.37,0.49 2.93,0.97 4.67,1.41 1.72,0.44 3.5,0.91 5.31,1.4 1.81,0.49 3.59,1.05 5.31,1.68 1.74,0.63 3.29,1.38 4.65,2.25 1.35,0.87 2.45,1.89 3.29,3.08 0.83,1.18 1.24,2.56 1.24,4.16z"/>
   <polygon class="fil0 str0" points="56.47,112.59 174.51,112.59 174.51,115.7 56.47,115.7 "/>
   <path class="fil0 str0" d="M56.06 112.6c0.97,0 1.77,0.7 1.77,1.55 0,0.86 -0.79,1.56 -1.77,1.56 -0.98,0 -1.77,-0.7 -1.77,-1.56 0,-0.86 0.79,-1.55 1.77,-1.55z"/>
   <path class="fil0 str0" d="M174.84 112.59c0.94,0 1.69,0.7 1.69,1.56 0,0.86 -0.76,1.56 -1.69,1.56 -0.94,0 -1.69,-0.7 -1.69,-1.56 0,-0.86 0.76,-1.56 1.69,-1.56z"/>
   <path class="fil1" d="M176.26 23.36c-42.95,-6.13 -118.67,-4.43 -130.07,38.72 14.4,-22.68 39.72,-32.6 64.61,-33.22 24.89,-0.62 30.88,1.96 61.79,5.75 30.9,3.8 54.71,-5.29 55.76,-9.51 -2.79,0.26 -9.13,4.39 -52.08,-1.75z"/>
   <path class="fil1" d="M159.07 1.92c-18.56,-6.92 -61.87,3.62 -66.8,52.34 6.22,-25.61 30.65,-43.59 41.4,-44.29 10.75,-0.7 10.78,0.48 24.13,4.77 13.35,4.29 23.32,-6.09 23.77,-10.85 -1.2,0.29 -3.94,4.95 -22.5,-1.97z"/>
   <path class="fil1" d="M208.29 36.85c-10.34,3.28 -25.15,3.17 -55.13,-0.88 -29.98,-4.06 -71.09,-11.99 -99.12,21.7 -1.3,1.59 25.07,-26.79 68.8,-17.02 43.73,9.78 53.19,12.9 85.45,-3.8z"/>
   <path class="fil1" d="M36.51 7.63c0,-0 2.49,0.11 2.51,0.28 0.83,6.1 1.32,29.93 1.22,36.71 -0.26,16.88 -0.51,18.21 -6.58,20.56 -2.25,0.87 -4.59,1.48 -7.98,2.86 2.36,0.53 6.94,-50.82 10.49,-60.47 0,-0 0,-0.01 0,-0.01 0.03,0.01 0.33,0.07 0.34,0.07z"/>
   <path class="fil1" d="M187.85 94.48c0,2.1 -0.66,3.93 -1.97,5.52 -1.33,1.58 -3.11,2.89 -5.36,3.95 -2.27,1.05 -4.9,1.85 -7.92,2.39 -3.02,0.54 -6.25,0.8 -9.7,0.8 -2.33,0 -4.48,-0.12 -6.48,-0.35 -1.99,-0.23 -3.75,-0.5 -5.27,-0.83 -1.53,-0.32 -2.81,-0.65 -3.84,-1.01 -1.03,-0.36 -1.76,-0.67 -2.22,-0.94 -0.44,-0.27 -0.76,-0.66 -0.96,-1.17 -0.2,-0.5 -0.28,-1.22 -0.28,-2.17 0,-0.64 0.04,-1.17 0.11,-1.6 0.07,-0.43 0.18,-0.78 0.34,-1.05 0.16,-0.26 0.37,-0.45 0.62,-0.57 0.27,-0.12 0.57,-0.17 0.92,-0.17 0.48,0 1.17,0.17 2.06,0.52 0.89,0.34 2.02,0.71 3.41,1.13 1.39,0.41 3.05,0.79 4.99,1.13 1.92,0.35 4.15,0.52 6.7,0.52 1.67,0 3.16,-0.12 4.48,-0.35 1.33,-0.24 2.45,-0.57 3.38,-1 0.92,-0.43 1.62,-0.96 2.11,-1.59 0.48,-0.63 0.73,-1.33 0.73,-2.11 0,-0.9 -0.41,-1.68 -1.24,-2.32 -0.83,-0.65 -1.92,-1.22 -3.27,-1.72 -1.33,-0.51 -2.86,-0.98 -4.56,-1.42 -1.69,-0.44 -3.44,-0.9 -5.26,-1.4 -1.81,-0.49 -3.57,-1.05 -5.26,-1.68 -1.7,-0.62 -3.23,-1.37 -4.56,-2.24 -1.35,-0.87 -2.43,-1.9 -3.27,-3.1 -0.83,-1.19 -1.24,-2.62 -1.24,-4.28 0,-1.9 0.6,-3.59 1.79,-5.04 1.19,-1.44 2.81,-2.64 4.83,-3.6 2.04,-0.96 4.42,-1.67 7.18,-2.14 2.75,-0.47 5.68,-0.7 8.77,-0.7 1.58,0 3.18,0.07 4.78,0.22 1.6,0.14 3.09,0.34 4.48,0.58 1.39,0.25 2.61,0.53 3.69,0.83 1.07,0.32 1.78,0.57 2.13,0.78 0.34,0.2 0.57,0.38 0.69,0.52 0.13,0.15 0.23,0.34 0.32,0.58 0.09,0.23 0.14,0.53 0.18,0.89 0.04,0.36 0.05,0.8 0.05,1.33 0,0.59 -0.02,1.09 -0.07,1.5 -0.05,0.41 -0.14,0.75 -0.27,1.02 -0.13,0.26 -0.3,0.46 -0.52,0.58 -0.23,0.13 -0.53,0.19 -0.92,0.19 -0.37,0 -0.98,-0.15 -1.81,-0.43 -0.83,-0.28 -1.87,-0.6 -3.07,-0.95 -1.22,-0.34 -2.63,-0.64 -4.23,-0.91 -1.6,-0.28 -3.34,-0.42 -5.26,-0.42 -1.49,0 -2.79,0.11 -3.91,0.33 -1.1,0.21 -2.02,0.52 -2.77,0.89 -0.75,0.38 -1.31,0.83 -1.67,1.37 -0.37,0.54 -0.55,1.1 -0.55,1.69 0,0.88 0.41,1.65 1.23,2.29 0.82,0.65 1.92,1.23 3.29,1.74 1.37,0.49 2.93,0.97 4.67,1.41 1.72,0.44 3.5,0.91 5.31,1.4 1.81,0.49 3.59,1.05 5.31,1.68 1.74,0.63 3.29,1.38 4.65,2.25 1.35,0.87 2.45,1.89 3.29,3.08 0.83,1.18 1.24,2.56 1.24,4.16z"/>
   <path class="fil1" d="M135.45 104.74c0,0.23 -0.08,0.43 -0.25,0.6 -0.17,0.18 -0.48,0.32 -0.96,0.43 -0.46,0.11 -1.1,0.2 -1.92,0.26 -0.82,0.06 -1.84,0.09 -3.08,0.09 -1.96,0 -3.37,-0.05 -4.24,-0.16 -0.87,-0.09 -1.48,-0.25 -1.85,-0.46 -0.37,-0.2 -0.67,-0.45 -0.88,-0.74l-17.72 -18.92 0 18.92c0,0.22 -0.09,0.42 -0.28,0.59 -0.17,0.16 -0.5,0.3 -0.94,0.41 -0.45,0.11 -1.05,0.2 -1.81,0.26 -0.74,0.06 -1.72,0.09 -2.88,0.09 -1.15,0 -2.1,-0.03 -2.88,-0.09 -0.77,-0.06 -1.38,-0.15 -1.82,-0.26 -0.45,-0.12 -0.77,-0.25 -0.97,-0.41 -0.2,-0.17 -0.29,-0.37 -0.29,-0.59l0 -37.56c0,-0.23 0.09,-0.42 0.29,-0.59 0.2,-0.16 0.53,-0.29 0.97,-0.4 0.45,-0.11 1.05,-0.18 1.82,-0.24 0.77,-0.06 1.73,-0.09 2.88,-0.09 1.16,0 2.13,0.03 2.88,0.09 0.76,0.06 1.36,0.14 1.81,0.24 0.45,0.1 0.77,0.24 0.94,0.4 0.19,0.17 0.28,0.36 0.28,0.59l0 16.98 17.16 -16.95c0.22,-0.26 0.46,-0.48 0.77,-0.66 0.29,-0.18 0.7,-0.32 1.17,-0.42 0.48,-0.09 1.1,-0.17 1.86,-0.21 0.76,-0.04 1.72,-0.06 2.89,-0.06 1.21,0 2.2,0.03 2.98,0.09 0.79,0.06 1.41,0.15 1.89,0.26 0.46,0.1 0.79,0.25 0.96,0.41 0.19,0.17 0.28,0.35 0.28,0.56 0,0.35 -0.14,0.7 -0.4,1.08 -0.28,0.37 -0.79,0.95 -1.55,1.76l-16.05 14.33 17.52 18.02c0.66,0.84 1.07,1.41 1.21,1.68 0.14,0.27 0.2,0.49 0.2,0.66z"/>
  </g>
 </g>
</svg>
